# xmcd
#
# Track frame offsets:
#	182
#	16857
#	32822
#	50725
#	69807
#	88440
#	107085
#	122625
#	139230
#	155575
#	175115
#	193357
#	209650
#	232672
#	249872
#
# Disc length: 3498 seconds
#
# Revision: 1
# Processed by: cddbd v1.5.2PL0 Copyright (c) Steve Scherf et al.
# Submitted via: audiograbber 1.83.01
#
DISCID=d00da80f
DTITLE=Music Maestro - MM6028
DYEAR=1900
DGENRE=Karaoke CDG
TTITLE0=American Honky Tonk Bar Association
TTITLE1=Looking Out For Number One
TTITLE2=Soon
TTITLE3=She Used To Be Mine\n
TTITLE4=Prop Me Up Beside the Jukebox\n
TTITLE5=Down On My Knees
TTITLE6=Mercury Blues
TTITLE7=Half Enough
TTITLE8=He Ain't Worth Missing
TTITLE9=I LoveThe Way You Love Me
TTITLE10=Nothing But The Wheel
TTITLE11=If I Didn't Love You
TTITLE12=That Summer
TTITLE13=Bug, The
TTITLE14=Whiskey Ain't Working' Anymore, The
EXTD=
EXTT0=
EXTT1=
EXTT2=
EXTT3=
EXTT4=
EXTT5=
EXTT6=
EXTT7=
EXTT8=
EXTT9=
EXTT10=
EXTT11=
EXTT12=
EXTT13=
EXTT14=
PLAYORDER=
